<mxfile host="app.diagrams.net" agent="Mozilla/5.0 (Macintosh; Intel Mac OS X 10_15_7) AppleWebKit/537.36 (KHTML, like Gecko) Chrome/134.0.0.0 Safari/537.36" version="26.2.12">
  <diagram name="Page-1" id="c7488fd3-1785-93aa-aadb-54a6760d102a">
    <mxGraphModel dx="2295" dy="841" grid="1" gridSize="10" guides="1" tooltips="1" connect="1" arrows="1" fold="1" page="1" pageScale="1" pageWidth="1100" pageHeight="850" background="#ffffff" math="0" shadow="1">
      <root>
        <mxCell id="0" />
        <mxCell id="1" parent="0" />
        <mxCell id="vnCYAxqODqpSektjDldU-1" value="yds.buildFEProjects" style="swimlane;fillColor=#d5e8d4;strokeColor=#82b366;" parent="1" vertex="1">
          <mxGeometry x="130" y="300" width="380" height="760" as="geometry">
            <mxRectangle x="130" y="300" width="50" height="30" as="alternateBounds" />
          </mxGeometry>
        </mxCell>
        <mxCell id="vnCYAxqODqpSektjDldU-163" value="" style="edgeStyle=orthogonalEdgeStyle;rounded=0;orthogonalLoop=1;jettySize=auto;html=1;" parent="vnCYAxqODqpSektjDldU-1" source="vnCYAxqODqpSektjDldU-160" target="vnCYAxqODqpSektjDldU-162" edge="1">
          <mxGeometry relative="1" as="geometry" />
        </mxCell>
        <mxCell id="vnCYAxqODqpSektjDldU-160" value="yds.initFEProjects" style="whiteSpace=wrap;html=1;rounded=1;" parent="vnCYAxqODqpSektjDldU-1" vertex="1">
          <mxGeometry x="128" y="50" width="120" height="60" as="geometry" />
        </mxCell>
        <mxCell id="vnCYAxqODqpSektjDldU-162" value="&lt;span style=&quot;font-family: &amp;quot;Microsoft YaHei&amp;quot;, 微软雅黑, Arial; font-size: 13px; background-color: rgba(255, 255, 255, 0.01);&quot;&gt;yds.createBuildDist&lt;/span&gt;" style="whiteSpace=wrap;html=1;rounded=1;" parent="vnCYAxqODqpSektjDldU-1" vertex="1">
          <mxGeometry x="128" y="220" width="120" height="40" as="geometry" />
        </mxCell>
        <mxCell id="vnCYAxqODqpSektjDldU-249" value="" style="edgeStyle=orthogonalEdgeStyle;rounded=0;orthogonalLoop=1;jettySize=auto;html=1;" parent="vnCYAxqODqpSektjDldU-1" source="vnCYAxqODqpSektjDldU-246" target="vnCYAxqODqpSektjDldU-248" edge="1">
          <mxGeometry relative="1" as="geometry" />
        </mxCell>
        <mxCell id="vnCYAxqODqpSektjDldU-246" value="ynpm&lt;br&gt;yds-cli" style="ellipse;whiteSpace=wrap;html=1;rounded=1;" parent="vnCYAxqODqpSektjDldU-1" vertex="1">
          <mxGeometry x="147" y="510" width="80" height="80" as="geometry" />
        </mxCell>
        <mxCell id="vnCYAxqODqpSektjDldU-248" value="&lt;span style=&quot;font-family: &amp;quot;Microsoft YaHei&amp;quot;, 微软雅黑, Arial; font-size: 13px; background-color: rgba(255, 255, 255, 0.01);&quot;&gt;disks/disk/pakages&lt;/span&gt;" style="whiteSpace=wrap;html=1;rounded=1;" parent="vnCYAxqODqpSektjDldU-1" vertex="1">
          <mxGeometry x="127" y="650" width="120" height="60" as="geometry" />
        </mxCell>
        <mxCell id="vnCYAxqODqpSektjDldU-250" value="" style="swimlane;childLayout=stackLayout;horizontal=1;fillColor=none;horizontalStack=1;resizeParent=1;resizeParentMax=0;resizeLast=0;collapsible=0;strokeColor=none;stackBorder=10;stackSpacing=-12;resizable=1;align=center;points=[];whiteSpace=wrap;html=1;" parent="vnCYAxqODqpSektjDldU-1" vertex="1">
          <mxGeometry x="-9" y="310" width="392" height="110" as="geometry" />
        </mxCell>
        <mxCell id="vnCYAxqODqpSektjDldU-251" value="合并构建" style="shape=step;perimeter=stepPerimeter;fixedSize=1;points=[];whiteSpace=wrap;html=1;" parent="vnCYAxqODqpSektjDldU-250" vertex="1">
          <mxGeometry x="10" y="33" width="110" height="67" as="geometry" />
        </mxCell>
        <mxCell id="vnCYAxqODqpSektjDldU-252" value="根据微服务编码合包" style="shape=step;perimeter=stepPerimeter;fixedSize=1;points=[];whiteSpace=wrap;html=1;" parent="vnCYAxqODqpSektjDldU-250" vertex="1">
          <mxGeometry x="108" y="33" width="142" height="67" as="geometry" />
        </mxCell>
        <mxCell id="vnCYAxqODqpSektjDldU-253" value="生成一个dist目录" style="shape=step;perimeter=stepPerimeter;fixedSize=1;points=[];whiteSpace=wrap;html=1;" parent="vnCYAxqODqpSektjDldU-250" vertex="1">
          <mxGeometry x="238" y="33" width="144" height="67" as="geometry" />
        </mxCell>
        <mxCell id="vnCYAxqODqpSektjDldU-255" style="edgeStyle=orthogonalEdgeStyle;rounded=0;orthogonalLoop=1;jettySize=auto;html=1;entryX=0.627;entryY=0.015;entryDx=0;entryDy=0;entryPerimeter=0;" parent="vnCYAxqODqpSektjDldU-1" source="vnCYAxqODqpSektjDldU-162" target="vnCYAxqODqpSektjDldU-252" edge="1">
          <mxGeometry relative="1" as="geometry" />
        </mxCell>
        <mxCell id="vnCYAxqODqpSektjDldU-257" style="edgeStyle=orthogonalEdgeStyle;rounded=0;orthogonalLoop=1;jettySize=auto;html=1;exitX=0.613;exitY=1.03;exitDx=0;exitDy=0;exitPerimeter=0;entryX=0.5;entryY=0;entryDx=0;entryDy=0;" parent="vnCYAxqODqpSektjDldU-1" source="vnCYAxqODqpSektjDldU-252" target="vnCYAxqODqpSektjDldU-246" edge="1">
          <mxGeometry relative="1" as="geometry">
            <mxPoint x="190" y="510" as="sourcePoint" />
            <mxPoint x="190" y="560" as="targetPoint" />
          </mxGeometry>
        </mxCell>
        <mxCell id="vnCYAxqODqpSektjDldU-2" value="CDP" style="swimlane;fillColor=#ffe6cc;strokeColor=#D79B00;" parent="1" vertex="1">
          <mxGeometry x="1450" y="300" width="1270" height="760" as="geometry">
            <mxRectangle x="1450" y="300" width="70" height="30" as="alternateBounds" />
          </mxGeometry>
        </mxCell>
        <mxCell id="vnCYAxqODqpSektjDldU-25" value="&lt;h1 style=&quot;margin-top: 0px;&quot;&gt;&lt;span style=&quot;font-family: &amp;quot;Microsoft YaHei&amp;quot;, 微软雅黑, Arial; font-size: 13px; font-weight: 400; text-align: center; background-color: rgba(255, 255, 255, 0.01);&quot;&gt;onDidStartDebugSession&lt;/span&gt;&lt;/h1&gt;" style="text;html=1;whiteSpace=wrap;overflow=hidden;rounded=0;" parent="vnCYAxqODqpSektjDldU-2" vertex="1">
          <mxGeometry x="415" y="20" width="170" height="40" as="geometry" />
        </mxCell>
        <mxCell id="vnCYAxqODqpSektjDldU-34" value="&lt;span style=&quot;font-family: &amp;quot;Microsoft YaHei&amp;quot;, 微软雅黑, Arial; font-size: 13px; font-weight: 400; background-color: rgba(255, 255, 255, 0.01);&quot;&gt;yds.getMatchRules&lt;/span&gt;&lt;br style=&quot;font-family: &amp;quot;Microsoft YaHei&amp;quot;, 微软雅黑, Arial; font-size: 13px; font-weight: 400;&quot;&gt;&lt;span style=&quot;font-family: &amp;quot;Microsoft YaHei&amp;quot;, 微软雅黑, Arial; font-size: 13px; font-weight: 400; background-color: rgba(255, 255, 255, 0.01);&quot;&gt;CDPClient&lt;/span&gt;" style="shape=rect;fontStyle=1;html=1;whiteSpace=wrap;align=center;" parent="vnCYAxqODqpSektjDldU-2" vertex="1">
          <mxGeometry x="440" y="70" width="120" height="60" as="geometry" />
        </mxCell>
        <mxCell id="vnCYAxqODqpSektjDldU-69" style="edgeStyle=orthogonalEdgeStyle;rounded=0;orthogonalLoop=1;jettySize=auto;html=1;entryX=0.5;entryY=0;entryDx=0;entryDy=0;" parent="vnCYAxqODqpSektjDldU-2" source="vnCYAxqODqpSektjDldU-35" target="vnCYAxqODqpSektjDldU-39" edge="1">
          <mxGeometry relative="1" as="geometry" />
        </mxCell>
        <mxCell id="vnCYAxqODqpSektjDldU-72" style="edgeStyle=orthogonalEdgeStyle;rounded=0;orthogonalLoop=1;jettySize=auto;html=1;exitX=0.75;exitY=1;exitDx=0;exitDy=0;entryX=0.5;entryY=0;entryDx=0;entryDy=0;" parent="vnCYAxqODqpSektjDldU-2" source="vnCYAxqODqpSektjDldU-35" target="vnCYAxqODqpSektjDldU-42" edge="1">
          <mxGeometry relative="1" as="geometry" />
        </mxCell>
        <mxCell id="vnCYAxqODqpSektjDldU-35" value="&lt;span style=&quot;font-family: &amp;quot;Microsoft YaHei&amp;quot;, 微软雅黑, Arial; font-size: 13px; font-weight: 400; background-color: rgba(255, 255, 255, 0.01);&quot;&gt;ConnectCDP&lt;/span&gt;" style="shape=rect;fontStyle=1;html=1;whiteSpace=wrap;align=center;" parent="vnCYAxqODqpSektjDldU-2" vertex="1">
          <mxGeometry x="440" y="200" width="120" height="40" as="geometry" />
        </mxCell>
        <mxCell id="vnCYAxqODqpSektjDldU-36" value="&lt;div style=&quot;color: rgb(36, 41, 46); background-color: rgb(255, 255, 255); font-family: Menlo, Monaco, &amp;quot;Courier New&amp;quot;, monospace; font-weight: normal; font-size: 14px; line-height: 21px; white-space-collapse: preserve;&quot;&gt;&lt;span style=&quot;color: #005cc5;&quot;&gt;CDPConfig&lt;/span&gt;&lt;/div&gt;&lt;div style=&quot;color: rgb(36, 41, 46); background-color: rgb(255, 255, 255); font-family: Menlo, Monaco, &amp;quot;Courier New&amp;quot;, monospace; font-weight: normal; font-size: 14px; line-height: 21px; white-space-collapse: preserve;&quot;&gt;&lt;span style=&quot;color: rgb(0, 92, 197);&quot;&gt;CDPC&lt;/span&gt;&lt;span style=&quot;color: #005cc5;&quot;&gt;lient&lt;/span&gt;&lt;/div&gt;&lt;div style=&quot;color: rgb(36, 41, 46); background-color: rgb(255, 255, 255); font-family: Menlo, Monaco, &amp;quot;Courier New&amp;quot;, monospace; font-weight: normal; font-size: 14px; line-height: 21px; white-space-collapse: preserve;&quot;&gt;&lt;span style=&quot;color: #005cc5;&quot;&gt;initClient&lt;/span&gt;&lt;/div&gt;" style="endArrow=none;html=1;edgeStyle=none;labelBackgroundColor=none;align=left;fontStyle=1;fontSize=10;rounded=0;" parent="vnCYAxqODqpSektjDldU-2" source="vnCYAxqODqpSektjDldU-35" target="vnCYAxqODqpSektjDldU-34" edge="1">
          <mxGeometry relative="1" as="geometry" />
        </mxCell>
        <mxCell id="vnCYAxqODqpSektjDldU-39" value="addMenuItems" style="swimlane;fillColor=#bac8d3;strokeColor=#23445d;" parent="vnCYAxqODqpSektjDldU-2" vertex="1">
          <mxGeometry x="10" y="290" width="220" height="330" as="geometry">
            <mxRectangle x="10" y="290" width="120" height="30" as="alternateBounds" />
          </mxGeometry>
        </mxCell>
        <mxCell id="vnCYAxqODqpSektjDldU-66" value="" style="edgeStyle=orthogonalEdgeStyle;rounded=0;orthogonalLoop=1;jettySize=auto;html=1;" parent="vnCYAxqODqpSektjDldU-39" source="vnCYAxqODqpSektjDldU-61" target="vnCYAxqODqpSektjDldU-65" edge="1">
          <mxGeometry relative="1" as="geometry" />
        </mxCell>
        <mxCell id="vnCYAxqODqpSektjDldU-61" value="&lt;span style=&quot;font-family: &amp;quot;Microsoft YaHei&amp;quot;, 微软雅黑, Arial; font-size: 13px; background-color: rgba(255, 255, 255, 0.01);&quot;&gt;yds.addMenuList&lt;br&gt;&lt;span style=&quot;font-family: Helvetica; font-size: 12px; background-color: rgb(236, 236, 236);&quot;&gt;读取配置&lt;/span&gt;&lt;/span&gt;" style="shape=rect;html=1;rounded=1;whiteSpace=wrap;" parent="vnCYAxqODqpSektjDldU-39" vertex="1">
          <mxGeometry x="30" y="130" width="140" height="50" as="geometry" />
        </mxCell>
        <mxCell id="vnCYAxqODqpSektjDldU-62" value="" style="edgeStyle=elbowEdgeStyle;html=1;elbow=horizontal;endArrow=open;labelBackgroundColor=none;endSize=12;rounded=0;" parent="vnCYAxqODqpSektjDldU-39" target="vnCYAxqODqpSektjDldU-61" edge="1">
          <mxGeometry relative="1" as="geometry">
            <mxPoint x="100" y="100" as="sourcePoint" />
          </mxGeometry>
        </mxCell>
        <mxCell id="vnCYAxqODqpSektjDldU-65" value="&lt;span style=&quot;font-family: &amp;quot;Microsoft YaHei&amp;quot;, 微软雅黑, Arial; font-size: 13px; background-color: rgba(255, 255, 255, 0.01);&quot;&gt;continueInterceptedRequest&lt;/span&gt;&lt;br style=&quot;font-family: &amp;quot;Microsoft YaHei&amp;quot;, 微软雅黑, Arial; font-size: 13px;&quot;&gt;&lt;span style=&quot;font-family: &amp;quot;Microsoft YaHei&amp;quot;, 微软雅黑, Arial; font-size: 13px; background-color: rgba(255, 255, 255, 0.01);&quot;&gt;处理结果&lt;/span&gt;" style="whiteSpace=wrap;html=1;rounded=1;" parent="vnCYAxqODqpSektjDldU-39" vertex="1">
          <mxGeometry x="10" y="230" width="180" height="80" as="geometry" />
        </mxCell>
        <mxCell id="vnCYAxqODqpSektjDldU-74" value="&lt;span style=&quot;font-weight: 400; font-family: &amp;quot;Microsoft YaHei&amp;quot;, 微软雅黑, Arial; font-size: 13px; background-color: rgba(255, 255, 255, 0.01);&quot;&gt;setRequestInterception&lt;/span&gt;&lt;br style=&quot;font-weight: 400; font-family: &amp;quot;Microsoft YaHei&amp;quot;, 微软雅黑, Arial; font-size: 13px;&quot;&gt;&lt;span style=&quot;font-weight: 400; font-family: &amp;quot;Microsoft YaHei&amp;quot;, 微软雅黑, Arial; font-size: 13px; background-color: rgba(255, 255, 255, 0.01);&quot;&gt;拦截请求&lt;/span&gt;" style="shape=rect;fontStyle=1;html=1;whiteSpace=wrap;align=center;" parent="vnCYAxqODqpSektjDldU-39" vertex="1">
          <mxGeometry x="30" y="40" width="150" height="70" as="geometry" />
        </mxCell>
        <mxCell id="vnCYAxqODqpSektjDldU-40" value="setCookie" style="swimlane;fillColor=#b1ddf0;strokeColor=#10739e;" parent="vnCYAxqODqpSektjDldU-2" vertex="1">
          <mxGeometry x="260" y="290" width="280" height="330" as="geometry" />
        </mxCell>
        <mxCell id="vnCYAxqODqpSektjDldU-82" value="" style="edgeStyle=orthogonalEdgeStyle;rounded=0;orthogonalLoop=1;jettySize=auto;html=1;" parent="vnCYAxqODqpSektjDldU-40" source="vnCYAxqODqpSektjDldU-80" target="vnCYAxqODqpSektjDldU-81" edge="1">
          <mxGeometry relative="1" as="geometry" />
        </mxCell>
        <mxCell id="vnCYAxqODqpSektjDldU-80" value="&lt;span style=&quot;font-family: &amp;quot;Microsoft YaHei&amp;quot;, 微软雅黑, Arial; font-size: 13px; background-color: rgba(255, 255, 255, 0.01);&quot;&gt;getRdbgaCookie&lt;/span&gt;&lt;div style=&quot;resize: none; outline: none; font-size: 13px; font-family: &amp;quot;Microsoft YaHei&amp;quot;, 微软雅黑, Arial;&quot;&gt;+yds.rdbgaOverrides&lt;/div&gt;" style="rounded=1;whiteSpace=wrap;html=1;" parent="vnCYAxqODqpSektjDldU-40" vertex="1">
          <mxGeometry x="10" y="40" width="120" height="60" as="geometry" />
        </mxCell>
        <mxCell id="vnCYAxqODqpSektjDldU-81" value="&lt;span style=&quot;font-family: &amp;quot;Microsoft YaHei&amp;quot;, 微软雅黑, Arial; font-size: 13px; background-color: rgba(255, 255, 255, 0.01);&quot;&gt;SetRdbgaCookie&lt;/span&gt;" style="whiteSpace=wrap;html=1;rounded=1;" parent="vnCYAxqODqpSektjDldU-40" vertex="1">
          <mxGeometry x="10" y="180" width="120" height="60" as="geometry" />
        </mxCell>
        <mxCell id="vnCYAxqODqpSektjDldU-85" value="" style="edgeStyle=orthogonalEdgeStyle;rounded=0;orthogonalLoop=1;jettySize=auto;html=1;" parent="vnCYAxqODqpSektjDldU-40" source="vnCYAxqODqpSektjDldU-83" target="vnCYAxqODqpSektjDldU-84" edge="1">
          <mxGeometry relative="1" as="geometry" />
        </mxCell>
        <mxCell id="vnCYAxqODqpSektjDldU-83" value="&lt;span style=&quot;font-family: &amp;quot;Microsoft YaHei&amp;quot;, 微软雅黑, Arial; font-size: 13px; background-color: rgba(255, 255, 255, 0.01);&quot;&gt;getDomainParts&lt;/span&gt;" style="rounded=1;whiteSpace=wrap;html=1;" parent="vnCYAxqODqpSektjDldU-40" vertex="1">
          <mxGeometry x="140" y="40" width="120" height="60" as="geometry" />
        </mxCell>
        <mxCell id="vnCYAxqODqpSektjDldU-84" value="&lt;span style=&quot;font-family: &amp;quot;Microsoft YaHei&amp;quot;, 微软雅黑, Arial; font-size: 13px; background-color: rgba(255, 255, 255, 0.01);&quot;&gt;setAccessToken&lt;/span&gt;" style="whiteSpace=wrap;html=1;rounded=1;" parent="vnCYAxqODqpSektjDldU-40" vertex="1">
          <mxGeometry x="140" y="180" width="120" height="60" as="geometry" />
        </mxCell>
        <mxCell id="vnCYAxqODqpSektjDldU-41" value="PostMessageToOverrider" style="swimlane;fillColor=#d0cee2;strokeColor=#56517e;" parent="vnCYAxqODqpSektjDldU-2" vertex="1">
          <mxGeometry x="560" y="290" width="340" height="330" as="geometry">
            <mxRectangle x="570" y="290" width="180" height="30" as="alternateBounds" />
          </mxGeometry>
        </mxCell>
        <mxCell id="vnCYAxqODqpSektjDldU-88" value="" style="edgeStyle=orthogonalEdgeStyle;rounded=0;orthogonalLoop=1;jettySize=auto;html=1;" parent="vnCYAxqODqpSektjDldU-41" source="vnCYAxqODqpSektjDldU-86" target="vnCYAxqODqpSektjDldU-87" edge="1">
          <mxGeometry relative="1" as="geometry" />
        </mxCell>
        <mxCell id="vnCYAxqODqpSektjDldU-86" value="&lt;span style=&quot;font-family: &amp;quot;Microsoft YaHei&amp;quot;, 微软雅黑, Arial; font-size: 13px; background-color: rgba(255, 255, 255, 0.01);&quot;&gt;getMatchRules&lt;/span&gt;" style="rounded=1;whiteSpace=wrap;html=1;" parent="vnCYAxqODqpSektjDldU-41" vertex="1">
          <mxGeometry x="40" y="40" width="120" height="60" as="geometry" />
        </mxCell>
        <mxCell id="vnCYAxqODqpSektjDldU-90" value="" style="edgeStyle=orthogonalEdgeStyle;rounded=0;orthogonalLoop=1;jettySize=auto;html=1;" parent="vnCYAxqODqpSektjDldU-41" source="vnCYAxqODqpSektjDldU-87" target="vnCYAxqODqpSektjDldU-89" edge="1">
          <mxGeometry relative="1" as="geometry" />
        </mxCell>
        <mxCell id="vnCYAxqODqpSektjDldU-92" value="" style="edgeStyle=orthogonalEdgeStyle;rounded=0;orthogonalLoop=1;jettySize=auto;html=1;" parent="vnCYAxqODqpSektjDldU-41" source="vnCYAxqODqpSektjDldU-87" target="vnCYAxqODqpSektjDldU-91" edge="1">
          <mxGeometry relative="1" as="geometry" />
        </mxCell>
        <mxCell id="vnCYAxqODqpSektjDldU-87" value="&lt;div style=&quot;background-color: rgb(255, 255, 255); line-height: 21px; color: rgb(36, 41, 46);&quot;&gt;&lt;font face=&quot;Menlo, Monaco, Courier New, monospace&quot; color=&quot;#24292e&quot;&gt;&lt;span style=&quot;font-size: 14px; white-space: pre;&quot;&gt;resource&lt;br/&gt;_override&lt;br/&gt;_rules.json&lt;/span&gt;&lt;/font&gt;&lt;/div&gt;" style="rhombus;whiteSpace=wrap;html=1;rounded=1;" parent="vnCYAxqODqpSektjDldU-41" vertex="1">
          <mxGeometry x="25" y="135" width="150" height="70" as="geometry" />
        </mxCell>
        <mxCell id="vnCYAxqODqpSektjDldU-89" value="&lt;span style=&quot;font-family: &amp;quot;Microsoft YaHei&amp;quot;, 微软雅黑, Arial; font-size: 13px; background-color: rgba(255, 255, 255, 0.01);&quot;&gt;postMessage&lt;/span&gt;" style="whiteSpace=wrap;html=1;rounded=1;" parent="vnCYAxqODqpSektjDldU-41" vertex="1">
          <mxGeometry x="40" y="240" width="120" height="60" as="geometry" />
        </mxCell>
        <mxCell id="vnCYAxqODqpSektjDldU-93" style="edgeStyle=orthogonalEdgeStyle;rounded=0;orthogonalLoop=1;jettySize=auto;html=1;entryX=1;entryY=0.5;entryDx=0;entryDy=0;exitX=0.62;exitY=1.017;exitDx=0;exitDy=0;exitPerimeter=0;" parent="vnCYAxqODqpSektjDldU-41" source="vnCYAxqODqpSektjDldU-91" target="vnCYAxqODqpSektjDldU-89" edge="1">
          <mxGeometry relative="1" as="geometry" />
        </mxCell>
        <mxCell id="vnCYAxqODqpSektjDldU-91" value="&lt;span style=&quot;font-family: &amp;quot;Microsoft YaHei&amp;quot;, 微软雅黑, Arial; font-size: 13px; background-color: rgba(255, 255, 255, 0.01);&quot;&gt;yds.getSettings&lt;/span&gt;" style="whiteSpace=wrap;html=1;rounded=1;" parent="vnCYAxqODqpSektjDldU-41" vertex="1">
          <mxGeometry x="200" y="140" width="100" height="60" as="geometry" />
        </mxCell>
        <mxCell id="vnCYAxqODqpSektjDldU-95" value="否" style="text;html=1;align=center;verticalAlign=middle;whiteSpace=wrap;rounded=0;" parent="vnCYAxqODqpSektjDldU-41" vertex="1">
          <mxGeometry x="150" y="140" width="60" height="30" as="geometry" />
        </mxCell>
        <mxCell id="vnCYAxqODqpSektjDldU-96" value="是" style="text;html=1;align=center;verticalAlign=middle;whiteSpace=wrap;rounded=0;" parent="vnCYAxqODqpSektjDldU-41" vertex="1">
          <mxGeometry x="40" y="205" width="60" height="30" as="geometry" />
        </mxCell>
        <mxCell id="vnCYAxqODqpSektjDldU-42" value="createButtonOnTabs" style="swimlane;fillColor=#b0e3e6;strokeColor=#0e8088;" parent="vnCYAxqODqpSektjDldU-2" vertex="1">
          <mxGeometry x="920" y="290" width="340" height="330" as="geometry" />
        </mxCell>
        <mxCell id="vnCYAxqODqpSektjDldU-99" value="" style="edgeStyle=orthogonalEdgeStyle;rounded=0;orthogonalLoop=1;jettySize=auto;html=1;" parent="vnCYAxqODqpSektjDldU-42" source="vnCYAxqODqpSektjDldU-97" target="vnCYAxqODqpSektjDldU-98" edge="1">
          <mxGeometry relative="1" as="geometry" />
        </mxCell>
        <mxCell id="vnCYAxqODqpSektjDldU-97" value="&lt;span style=&quot;font-family: &amp;quot;Microsoft YaHei&amp;quot;, 微软雅黑, Arial; font-size: 13px; background-color: rgba(255, 255, 255, 0.01);&quot;&gt;TabClient&lt;/span&gt;" style="rounded=1;whiteSpace=wrap;html=1;" parent="vnCYAxqODqpSektjDldU-42" vertex="1">
          <mxGeometry x="30" y="40" width="120" height="60" as="geometry" />
        </mxCell>
        <mxCell id="vnCYAxqODqpSektjDldU-101" value="" style="edgeStyle=orthogonalEdgeStyle;rounded=0;orthogonalLoop=1;jettySize=auto;html=1;" parent="vnCYAxqODqpSektjDldU-42" source="vnCYAxqODqpSektjDldU-98" target="vnCYAxqODqpSektjDldU-100" edge="1">
          <mxGeometry relative="1" as="geometry" />
        </mxCell>
        <mxCell id="vnCYAxqODqpSektjDldU-98" value="&lt;span style=&quot;font-family: &amp;quot;Microsoft YaHei&amp;quot;, 微软雅黑, Arial; font-size: 13px; background-color: rgba(255, 255, 255, 0.01);&quot;&gt;loadEventFired&lt;/span&gt;" style="rounded=1;whiteSpace=wrap;html=1;" parent="vnCYAxqODqpSektjDldU-42" vertex="1">
          <mxGeometry x="30" y="130" width="120" height="60" as="geometry" />
        </mxCell>
        <mxCell id="vnCYAxqODqpSektjDldU-103" value="" style="edgeStyle=orthogonalEdgeStyle;rounded=0;orthogonalLoop=1;jettySize=auto;html=1;" parent="vnCYAxqODqpSektjDldU-42" source="vnCYAxqODqpSektjDldU-100" target="vnCYAxqODqpSektjDldU-102" edge="1">
          <mxGeometry relative="1" as="geometry" />
        </mxCell>
        <mxCell id="vnCYAxqODqpSektjDldU-107" style="edgeStyle=orthogonalEdgeStyle;rounded=0;orthogonalLoop=1;jettySize=auto;html=1;exitX=1;exitY=0;exitDx=0;exitDy=0;entryX=0;entryY=0.5;entryDx=0;entryDy=0;" parent="vnCYAxqODqpSektjDldU-42" source="vnCYAxqODqpSektjDldU-100" target="vnCYAxqODqpSektjDldU-105" edge="1">
          <mxGeometry relative="1" as="geometry" />
        </mxCell>
        <mxCell id="vnCYAxqODqpSektjDldU-100" value="&lt;span style=&quot;font-family: &amp;quot;Microsoft YaHei&amp;quot;, 微软雅黑, Arial; font-size: 13px; background-color: rgba(255, 255, 255, 0.01);&quot;&gt;iframe&lt;/span&gt;" style="rhombus;whiteSpace=wrap;html=1;rounded=1;" parent="vnCYAxqODqpSektjDldU-42" vertex="1">
          <mxGeometry x="50" y="230" width="80" height="80" as="geometry" />
        </mxCell>
        <mxCell id="vnCYAxqODqpSektjDldU-102" value="&lt;span style=&quot;font-family: &amp;quot;Microsoft YaHei&amp;quot;, 微软雅黑, Arial; font-size: 13px; background-color: rgba(255, 255, 255, 0.01);&quot;&gt;createInfo&lt;/span&gt;&lt;div style=&quot;resize: none; outline: none; font-size: 13px; font-family: &amp;quot;Microsoft YaHei&amp;quot;, 微软雅黑, Arial;&quot;&gt;createLink&lt;/div&gt;" style="whiteSpace=wrap;html=1;rounded=1;" parent="vnCYAxqODqpSektjDldU-42" vertex="1">
          <mxGeometry x="190" y="240" width="120" height="60" as="geometry" />
        </mxCell>
        <mxCell id="vnCYAxqODqpSektjDldU-109" style="edgeStyle=orthogonalEdgeStyle;rounded=0;orthogonalLoop=1;jettySize=auto;html=1;exitX=0.5;exitY=1;exitDx=0;exitDy=0;entryX=0.5;entryY=0;entryDx=0;entryDy=0;" parent="vnCYAxqODqpSektjDldU-42" source="vnCYAxqODqpSektjDldU-105" target="vnCYAxqODqpSektjDldU-102" edge="1">
          <mxGeometry relative="1" as="geometry" />
        </mxCell>
        <mxCell id="vnCYAxqODqpSektjDldU-105" value="&lt;span style=&quot;font-family: &amp;quot;Microsoft YaHei&amp;quot;, 微软雅黑, Arial; font-size: 13px; background-color: rgba(255, 255, 255, 0.01);&quot;&gt;cheerio解析&lt;br&gt;获取地址及参数&lt;/span&gt;" style="rounded=1;whiteSpace=wrap;html=1;" parent="vnCYAxqODqpSektjDldU-42" vertex="1">
          <mxGeometry x="190" y="140" width="120" height="60" as="geometry" />
        </mxCell>
        <mxCell id="vnCYAxqODqpSektjDldU-106" value="否" style="text;html=1;align=center;verticalAlign=middle;whiteSpace=wrap;rounded=0;" parent="vnCYAxqODqpSektjDldU-42" vertex="1">
          <mxGeometry x="130" y="280" width="60" height="30" as="geometry" />
        </mxCell>
        <mxCell id="vnCYAxqODqpSektjDldU-108" value="是" style="text;html=1;align=center;verticalAlign=middle;whiteSpace=wrap;rounded=0;" parent="vnCYAxqODqpSektjDldU-42" vertex="1">
          <mxGeometry x="110" y="220" width="60" height="30" as="geometry" />
        </mxCell>
        <mxCell id="vnCYAxqODqpSektjDldU-70" style="edgeStyle=orthogonalEdgeStyle;rounded=0;orthogonalLoop=1;jettySize=auto;html=1;entryX=0.565;entryY=0.013;entryDx=0;entryDy=0;entryPerimeter=0;" parent="vnCYAxqODqpSektjDldU-2" source="vnCYAxqODqpSektjDldU-35" target="vnCYAxqODqpSektjDldU-40" edge="1">
          <mxGeometry relative="1" as="geometry" />
        </mxCell>
        <mxCell id="vnCYAxqODqpSektjDldU-71" style="edgeStyle=orthogonalEdgeStyle;rounded=0;orthogonalLoop=1;jettySize=auto;html=1;entryX=0.42;entryY=-0.009;entryDx=0;entryDy=0;entryPerimeter=0;" parent="vnCYAxqODqpSektjDldU-2" source="vnCYAxqODqpSektjDldU-35" target="vnCYAxqODqpSektjDldU-41" edge="1">
          <mxGeometry relative="1" as="geometry" />
        </mxCell>
        <mxCell id="vnCYAxqODqpSektjDldU-3" value="yds.startFEProjects" style="swimlane;fillColor=#f8cecc;strokeColor=#B85450;" parent="1" vertex="1">
          <mxGeometry x="530" y="300" width="900" height="760" as="geometry">
            <mxRectangle x="530" y="300" width="60" height="30" as="alternateBounds" />
          </mxGeometry>
        </mxCell>
        <mxCell id="vnCYAxqODqpSektjDldU-111" value="yds.initFEProjects" style="whiteSpace=wrap;html=1;" parent="vnCYAxqODqpSektjDldU-3" vertex="1">
          <mxGeometry x="320" y="50" width="100" height="40" as="geometry" />
        </mxCell>
        <mxCell id="vnCYAxqODqpSektjDldU-113" value="" style="edgeStyle=elbowEdgeStyle;elbow=vertical;html=1;rounded=1;curved=0;sourcePerimeterSpacing=0;targetPerimeterSpacing=0;startSize=6;endSize=6;" parent="vnCYAxqODqpSektjDldU-3" source="vnCYAxqODqpSektjDldU-111" target="vnCYAxqODqpSektjDldU-112" edge="1">
          <mxGeometry relative="1" as="geometry" />
        </mxCell>
        <mxCell id="vnCYAxqODqpSektjDldU-115" value="" style="edgeStyle=elbowEdgeStyle;elbow=vertical;html=1;rounded=1;curved=0;sourcePerimeterSpacing=0;targetPerimeterSpacing=0;startSize=6;endSize=6;" parent="vnCYAxqODqpSektjDldU-3" source="vnCYAxqODqpSektjDldU-111" target="vnCYAxqODqpSektjDldU-114" edge="1">
          <mxGeometry relative="1" as="geometry" />
        </mxCell>
        <mxCell id="vnCYAxqODqpSektjDldU-117" value="" style="edgeStyle=orthogonalEdgeStyle;rounded=0;orthogonalLoop=1;jettySize=auto;html=1;" parent="vnCYAxqODqpSektjDldU-3" source="vnCYAxqODqpSektjDldU-112" target="vnCYAxqODqpSektjDldU-116" edge="1">
          <mxGeometry relative="1" as="geometry" />
        </mxCell>
        <mxCell id="vnCYAxqODqpSektjDldU-112" value="&lt;span style=&quot;font-family: &amp;quot;Microsoft YaHei&amp;quot;, 微软雅黑, Arial; font-size: 13px; background-color: rgba(255, 255, 255, 0.01);&quot;&gt;single&lt;/span&gt;" style="whiteSpace=wrap;html=1;" parent="vnCYAxqODqpSektjDldU-3" vertex="1">
          <mxGeometry x="90" y="120" width="100" height="40" as="geometry" />
        </mxCell>
        <mxCell id="vnCYAxqODqpSektjDldU-114" value="&lt;span style=&quot;font-family: &amp;quot;Microsoft YaHei&amp;quot;, 微软雅黑, Arial; font-size: 13px; background-color: rgba(255, 255, 255, 0.01);&quot;&gt;much&lt;/span&gt;" style="whiteSpace=wrap;html=1;" parent="vnCYAxqODqpSektjDldU-3" vertex="1">
          <mxGeometry x="535" y="120" width="100" height="40" as="geometry" />
        </mxCell>
        <mxCell id="vnCYAxqODqpSektjDldU-119" value="" style="edgeStyle=orthogonalEdgeStyle;rounded=0;orthogonalLoop=1;jettySize=auto;html=1;" parent="vnCYAxqODqpSektjDldU-3" source="vnCYAxqODqpSektjDldU-116" target="vnCYAxqODqpSektjDldU-118" edge="1">
          <mxGeometry relative="1" as="geometry" />
        </mxCell>
        <mxCell id="vnCYAxqODqpSektjDldU-116" value="&lt;span style=&quot;font-family: &amp;quot;Microsoft YaHei&amp;quot;, 微软雅黑, Arial; font-size: 13px; background-color: rgba(255, 255, 255, 0.01);&quot;&gt;handleStartMicroservice&lt;/span&gt;" style="whiteSpace=wrap;html=1;" parent="vnCYAxqODqpSektjDldU-3" vertex="1">
          <mxGeometry x="60" y="230" width="160" height="60" as="geometry" />
        </mxCell>
        <mxCell id="vnCYAxqODqpSektjDldU-118" value="&lt;span style=&quot;font-family: &amp;quot;Microsoft YaHei&amp;quot;, 微软雅黑, Arial; font-size: 13px; background-color: rgba(255, 255, 255, 0.01);&quot;&gt;handleLaunchDebug&lt;/span&gt;" style="whiteSpace=wrap;html=1;" parent="vnCYAxqODqpSektjDldU-3" vertex="1">
          <mxGeometry x="60" y="370" width="160" height="50" as="geometry" />
        </mxCell>
        <mxCell id="vnCYAxqODqpSektjDldU-140" value="" style="edgeStyle=orthogonalEdgeStyle;rounded=0;orthogonalLoop=1;jettySize=auto;html=1;" parent="vnCYAxqODqpSektjDldU-3" source="vnCYAxqODqpSektjDldU-126" target="vnCYAxqODqpSektjDldU-139" edge="1">
          <mxGeometry relative="1" as="geometry" />
        </mxCell>
        <mxCell id="vnCYAxqODqpSektjDldU-126" value="&lt;font style=&quot;font-family: &amp;quot;Microsoft YaHei&amp;quot;, 微软雅黑, Arial; font-size: 14px;&quot; color=&quot;#f44336&quot;&gt;&lt;b&gt;mdf&lt;/b&gt;&lt;/font&gt;&lt;div style=&quot;resize: none; outline: none; font-size: 14px; font-family: &amp;quot;Microsoft YaHei&amp;quot;, 微软雅黑, Arial;&quot;&gt;&lt;div style=&quot;resize: none; outline: none; font-size: inherit;&quot;&gt;&lt;div style=&quot;resize: none; outline: none; font-size: inherit;&quot;&gt;&lt;br&gt;&lt;/div&gt;&lt;div style=&quot;resize: none; outline: none; font-size: inherit;&quot;&gt;@mdf/create-app&lt;br&gt;node server&lt;/div&gt;&lt;/div&gt;&lt;/div&gt;" style="whiteSpace=wrap;html=1;" parent="vnCYAxqODqpSektjDldU-3" vertex="1">
          <mxGeometry x="265" y="230" width="210" height="80" as="geometry" />
        </mxCell>
        <mxCell id="vnCYAxqODqpSektjDldU-142" value="" style="edgeStyle=orthogonalEdgeStyle;rounded=0;orthogonalLoop=1;jettySize=auto;html=1;" parent="vnCYAxqODqpSektjDldU-3" source="vnCYAxqODqpSektjDldU-128" target="vnCYAxqODqpSektjDldU-141" edge="1">
          <mxGeometry relative="1" as="geometry" />
        </mxCell>
        <mxCell id="vnCYAxqODqpSektjDldU-128" value="&lt;b style=&quot;font-family: &amp;quot;Microsoft YaHei&amp;quot;, 微软雅黑, Arial; font-size: 14px;&quot;&gt;&lt;font color=&quot;#f44336&quot;&gt;二方包&lt;/font&gt;&lt;/b&gt;&lt;br style=&quot;font-family: &amp;quot;Microsoft YaHei&amp;quot;, 微软雅黑, Arial; font-size: 14px;&quot;&gt;&lt;br style=&quot;font-family: &amp;quot;Microsoft YaHei&amp;quot;, 微软雅黑, Arial; font-size: 14px;&quot;&gt;&lt;span style=&quot;font-family: &amp;quot;Microsoft YaHei&amp;quot;, 微软雅黑, Arial; font-size: 14px; background-color: rgba(255, 255, 255, 0.01);&quot;&gt;yds-scripts&lt;/span&gt;" style="whiteSpace=wrap;html=1;" parent="vnCYAxqODqpSektjDldU-3" vertex="1">
          <mxGeometry x="530" y="230" width="150" height="80" as="geometry" />
        </mxCell>
        <mxCell id="vnCYAxqODqpSektjDldU-129" value="" style="edgeStyle=elbowEdgeStyle;elbow=vertical;html=1;rounded=1;curved=0;sourcePerimeterSpacing=0;targetPerimeterSpacing=0;startSize=6;endSize=6;exitX=0.5;exitY=1;exitDx=0;exitDy=0;" parent="vnCYAxqODqpSektjDldU-3" source="vnCYAxqODqpSektjDldU-114" target="vnCYAxqODqpSektjDldU-128" edge="1">
          <mxGeometry relative="1" as="geometry">
            <mxPoint x="510" y="160" as="sourcePoint" />
          </mxGeometry>
        </mxCell>
        <mxCell id="vnCYAxqODqpSektjDldU-127" value="" style="edgeStyle=elbowEdgeStyle;elbow=vertical;html=1;rounded=1;curved=0;sourcePerimeterSpacing=0;targetPerimeterSpacing=0;startSize=6;endSize=6;exitX=0.5;exitY=1;exitDx=0;exitDy=0;" parent="vnCYAxqODqpSektjDldU-3" source="vnCYAxqODqpSektjDldU-114" target="vnCYAxqODqpSektjDldU-126" edge="1">
          <mxGeometry relative="1" as="geometry">
            <mxPoint x="510" y="160" as="sourcePoint" />
          </mxGeometry>
        </mxCell>
        <mxCell id="vnCYAxqODqpSektjDldU-144" value="" style="edgeStyle=orthogonalEdgeStyle;rounded=0;orthogonalLoop=1;jettySize=auto;html=1;" parent="vnCYAxqODqpSektjDldU-3" source="vnCYAxqODqpSektjDldU-134" target="vnCYAxqODqpSektjDldU-143" edge="1">
          <mxGeometry relative="1" as="geometry" />
        </mxCell>
        <mxCell id="vnCYAxqODqpSektjDldU-134" value="&lt;b style=&quot;font-family: &amp;quot;Microsoft YaHei&amp;quot;, 微软雅黑, Arial; font-size: 14px;&quot;&gt;&lt;font color=&quot;#f44336&quot;&gt;原生&lt;/font&gt;&lt;/b&gt;&lt;br style=&quot;font-family: &amp;quot;Microsoft YaHei&amp;quot;, 微软雅黑, Arial; font-size: 14px;&quot;&gt;yds-scripts&lt;br style=&quot;font-family: &amp;quot;Microsoft YaHei&amp;quot;, 微软雅黑, Arial; font-size: 14px;&quot;&gt;&lt;span style=&quot;font-family: &amp;quot;Microsoft YaHei&amp;quot;, 微软雅黑, Arial; font-size: 14px; background-color: rgba(255, 255, 255, 0.01);&quot;&gt;webpack.config&lt;/span&gt;" style="whiteSpace=wrap;html=1;" parent="vnCYAxqODqpSektjDldU-3" vertex="1">
          <mxGeometry x="750" y="230" width="130" height="80" as="geometry" />
        </mxCell>
        <mxCell id="vnCYAxqODqpSektjDldU-135" value="" style="edgeStyle=elbowEdgeStyle;elbow=vertical;html=1;rounded=1;curved=0;sourcePerimeterSpacing=0;targetPerimeterSpacing=0;startSize=6;endSize=6;exitX=0.5;exitY=1;exitDx=0;exitDy=0;" parent="vnCYAxqODqpSektjDldU-3" source="vnCYAxqODqpSektjDldU-114" target="vnCYAxqODqpSektjDldU-134" edge="1">
          <mxGeometry relative="1" as="geometry">
            <mxPoint x="630" y="160" as="sourcePoint" />
          </mxGeometry>
        </mxCell>
        <mxCell id="vnCYAxqODqpSektjDldU-149" style="edgeStyle=orthogonalEdgeStyle;rounded=0;orthogonalLoop=1;jettySize=auto;html=1;exitX=0.5;exitY=1;exitDx=0;exitDy=0;entryX=0.57;entryY=0.018;entryDx=0;entryDy=0;entryPerimeter=0;" parent="vnCYAxqODqpSektjDldU-3" source="vnCYAxqODqpSektjDldU-139" target="vnCYAxqODqpSektjDldU-145" edge="1">
          <mxGeometry relative="1" as="geometry" />
        </mxCell>
        <mxCell id="vnCYAxqODqpSektjDldU-139" value="&lt;span style=&quot;font-family: &amp;quot;Microsoft YaHei&amp;quot;, 微软雅黑, Arial; font-size: 14px; background-color: rgba(255, 255, 255, 0.01);&quot;&gt;webpack &lt;br&gt;compiler&lt;/span&gt;" style="whiteSpace=wrap;html=1;" parent="vnCYAxqODqpSektjDldU-3" vertex="1">
          <mxGeometry x="310" y="351" width="120" height="60" as="geometry" />
        </mxCell>
        <mxCell id="vnCYAxqODqpSektjDldU-141" value="&lt;span style=&quot;font-family: &amp;quot;Microsoft YaHei&amp;quot;, 微软雅黑, Arial; font-size: 14px; background-color: rgba(255, 255, 255, 0.01);&quot;&gt;webpack &lt;br&gt;compiler&lt;/span&gt;" style="whiteSpace=wrap;html=1;" parent="vnCYAxqODqpSektjDldU-3" vertex="1">
          <mxGeometry x="545" y="351" width="120" height="60" as="geometry" />
        </mxCell>
        <mxCell id="vnCYAxqODqpSektjDldU-143" value="&lt;span style=&quot;font-family: &amp;quot;Microsoft YaHei&amp;quot;, 微软雅黑, Arial; font-size: 14px; background-color: rgba(255, 255, 255, 0.01);&quot;&gt;webpack &lt;br&gt;compiler&lt;/span&gt;" style="whiteSpace=wrap;html=1;" parent="vnCYAxqODqpSektjDldU-3" vertex="1">
          <mxGeometry x="755" y="351" width="120" height="60" as="geometry" />
        </mxCell>
        <mxCell id="vnCYAxqODqpSektjDldU-154" value="" style="edgeStyle=orthogonalEdgeStyle;rounded=0;orthogonalLoop=1;jettySize=auto;html=1;" parent="vnCYAxqODqpSektjDldU-3" source="vnCYAxqODqpSektjDldU-145" target="vnCYAxqODqpSektjDldU-153" edge="1">
          <mxGeometry relative="1" as="geometry" />
        </mxCell>
        <mxCell id="vnCYAxqODqpSektjDldU-156" value="" style="edgeStyle=orthogonalEdgeStyle;rounded=0;orthogonalLoop=1;jettySize=auto;html=1;" parent="vnCYAxqODqpSektjDldU-3" source="vnCYAxqODqpSektjDldU-145" target="vnCYAxqODqpSektjDldU-155" edge="1">
          <mxGeometry relative="1" as="geometry" />
        </mxCell>
        <mxCell id="vnCYAxqODqpSektjDldU-158" value="" style="edgeStyle=orthogonalEdgeStyle;rounded=0;orthogonalLoop=1;jettySize=auto;html=1;" parent="vnCYAxqODqpSektjDldU-3" source="vnCYAxqODqpSektjDldU-145" target="vnCYAxqODqpSektjDldU-157" edge="1">
          <mxGeometry relative="1" as="geometry" />
        </mxCell>
        <mxCell id="vnCYAxqODqpSektjDldU-145" value="&lt;span style=&quot;color: rgb(38, 38, 38); font-family: &amp;quot;Microsoft YaHei&amp;quot;, 微软雅黑, Arial; font-size: 18px; background-color: rgba(255, 255, 255, 0.01);&quot;&gt;Express&lt;/span&gt;" style="rounded=1;whiteSpace=wrap;html=1;" parent="vnCYAxqODqpSektjDldU-3" vertex="1">
          <mxGeometry x="360" y="470" width="430" height="55" as="geometry" />
        </mxCell>
        <mxCell id="vnCYAxqODqpSektjDldU-150" style="edgeStyle=orthogonalEdgeStyle;rounded=0;orthogonalLoop=1;jettySize=auto;html=1;exitX=0.5;exitY=1;exitDx=0;exitDy=0;entryX=0.57;entryY=0.073;entryDx=0;entryDy=0;entryPerimeter=0;" parent="vnCYAxqODqpSektjDldU-3" source="vnCYAxqODqpSektjDldU-141" target="vnCYAxqODqpSektjDldU-145" edge="1">
          <mxGeometry relative="1" as="geometry" />
        </mxCell>
        <mxCell id="vnCYAxqODqpSektjDldU-152" style="edgeStyle=orthogonalEdgeStyle;rounded=0;orthogonalLoop=1;jettySize=auto;html=1;exitX=0.5;exitY=1;exitDx=0;exitDy=0;entryX=0.572;entryY=0.018;entryDx=0;entryDy=0;entryPerimeter=0;" parent="vnCYAxqODqpSektjDldU-3" source="vnCYAxqODqpSektjDldU-143" target="vnCYAxqODqpSektjDldU-145" edge="1">
          <mxGeometry relative="1" as="geometry" />
        </mxCell>
        <mxCell id="vnCYAxqODqpSektjDldU-153" value="/app1" style="ellipse;whiteSpace=wrap;html=1;rounded=1;" parent="vnCYAxqODqpSektjDldU-3" vertex="1">
          <mxGeometry x="360" y="580" width="80" height="80" as="geometry" />
        </mxCell>
        <mxCell id="vnCYAxqODqpSektjDldU-155" value="/app2" style="ellipse;whiteSpace=wrap;html=1;rounded=1;" parent="vnCYAxqODqpSektjDldU-3" vertex="1">
          <mxGeometry x="535" y="580" width="80" height="80" as="geometry" />
        </mxCell>
        <mxCell id="vnCYAxqODqpSektjDldU-157" value="/app3" style="ellipse;whiteSpace=wrap;html=1;rounded=1;" parent="vnCYAxqODqpSektjDldU-3" vertex="1">
          <mxGeometry x="700" y="580" width="80" height="80" as="geometry" />
        </mxCell>
        <mxCell id="vnCYAxqODqpSektjDldU-8" value="activate" style="swimlane;fillColor=#008a00;fontColor=#ffffff;strokeColor=#005700;" parent="1" vertex="1">
          <mxGeometry x="160" y="20" width="880" height="250" as="geometry">
            <mxRectangle x="160" y="20" width="80" height="30" as="alternateBounds" />
          </mxGeometry>
        </mxCell>
        <mxCell id="vnCYAxqODqpSektjDldU-9" value="&lt;span style=&quot;font-family: &amp;quot;Microsoft YaHei&amp;quot;, 微软雅黑, Arial; font-size: 13px; font-weight: 400; text-align: center; background-color: rgba(255, 255, 255, 0.01);&quot;&gt;Task&lt;/span&gt;" style="label;whiteSpace=wrap;html=1;image=img/clipart/Gear_128x128.png" parent="vnCYAxqODqpSektjDldU-8" vertex="1">
          <mxGeometry x="40" y="55" width="140" height="60" as="geometry" />
        </mxCell>
        <mxCell id="vnCYAxqODqpSektjDldU-10" value="&lt;span style=&quot;font-family: &amp;quot;Microsoft YaHei&amp;quot;, 微软雅黑, Arial; font-size: 13px; background-color: rgba(255, 255, 255, 0.01);&quot;&gt;Commands&lt;/span&gt;" style="html=1;whiteSpace=wrap;container=1;recursiveResize=0;collapsible=0;" parent="vnCYAxqODqpSektjDldU-8" vertex="1">
          <mxGeometry x="330" y="55" width="160" height="70" as="geometry" />
        </mxCell>
        <mxCell id="vnCYAxqODqpSektjDldU-11" value="" style="triangle;html=1;whiteSpace=wrap;" parent="vnCYAxqODqpSektjDldU-10" vertex="1">
          <mxGeometry x="20" y="20" width="20" height="30" as="geometry" />
        </mxCell>
        <mxCell id="vnCYAxqODqpSektjDldU-12" value="&lt;span style=&quot;font-family: &amp;quot;Microsoft YaHei&amp;quot;, 微软雅黑, Arial; font-size: 13px; font-weight: 400; text-align: center; background-color: rgba(255, 255, 255, 0.01);&quot;&gt;CDP&lt;/span&gt;" style="label;whiteSpace=wrap;html=1;image=img/clipart/Gear_128x128.png" parent="vnCYAxqODqpSektjDldU-8" vertex="1">
          <mxGeometry x="670" y="60" width="140" height="60" as="geometry" />
        </mxCell>
        <mxCell id="vnCYAxqODqpSektjDldU-17" value="" style="edgeStyle=orthogonalEdgeStyle;sourcePerimeterSpacing=0;targetPerimeterSpacing=0;startArrow=none;endArrow=none;rounded=0;targetPortConstraint=eastwest;sourcePortConstraint=northsouth;curved=0;rounded=0;" parent="vnCYAxqODqpSektjDldU-8" target="vnCYAxqODqpSektjDldU-19" edge="1">
          <mxGeometry relative="1" as="geometry">
            <mxPoint x="410" y="130" as="sourcePoint" />
          </mxGeometry>
        </mxCell>
        <mxCell id="vnCYAxqODqpSektjDldU-18" value="" style="edgeStyle=orthogonalEdgeStyle;sourcePerimeterSpacing=0;targetPerimeterSpacing=0;startArrow=none;endArrow=none;rounded=0;targetPortConstraint=eastwest;sourcePortConstraint=northsouth;curved=0;rounded=0;" parent="vnCYAxqODqpSektjDldU-8" target="vnCYAxqODqpSektjDldU-20" edge="1">
          <mxGeometry relative="1" as="geometry">
            <mxPoint x="410" y="130" as="sourcePoint" />
          </mxGeometry>
        </mxCell>
        <mxCell id="vnCYAxqODqpSektjDldU-19" value="build" style="whiteSpace=wrap;html=1;align=center;verticalAlign=middle;treeFolding=1;treeMoving=1;" parent="vnCYAxqODqpSektjDldU-8" vertex="1">
          <mxGeometry x="300" y="170" width="100" height="60" as="geometry" />
        </mxCell>
        <mxCell id="vnCYAxqODqpSektjDldU-20" value="start" style="whiteSpace=wrap;html=1;align=center;verticalAlign=middle;treeFolding=1;treeMoving=1;" parent="vnCYAxqODqpSektjDldU-8" vertex="1">
          <mxGeometry x="420" y="170" width="100" height="60" as="geometry" />
        </mxCell>
        <mxCell id="vnCYAxqODqpSektjDldU-21" style="edgeStyle=orthogonalEdgeStyle;rounded=0;orthogonalLoop=1;jettySize=auto;html=1;entryX=0.5;entryY=0;entryDx=0;entryDy=0;" parent="1" source="vnCYAxqODqpSektjDldU-20" target="vnCYAxqODqpSektjDldU-3" edge="1">
          <mxGeometry relative="1" as="geometry" />
        </mxCell>
        <mxCell id="vnCYAxqODqpSektjDldU-22" style="edgeStyle=orthogonalEdgeStyle;rounded=0;orthogonalLoop=1;jettySize=auto;html=1;" parent="1" source="vnCYAxqODqpSektjDldU-19" target="vnCYAxqODqpSektjDldU-1" edge="1">
          <mxGeometry relative="1" as="geometry" />
        </mxCell>
        <mxCell id="vnCYAxqODqpSektjDldU-23" style="edgeStyle=orthogonalEdgeStyle;rounded=0;orthogonalLoop=1;jettySize=auto;html=1;entryX=0.5;entryY=0;entryDx=0;entryDy=0;" parent="1" source="vnCYAxqODqpSektjDldU-12" target="vnCYAxqODqpSektjDldU-2" edge="1">
          <mxGeometry relative="1" as="geometry" />
        </mxCell>
        <mxCell id="vnCYAxqODqpSektjDldU-73" value="&lt;p style=&quot;margin:0px;margin-top:10px;margin-left:10px;text-align:left;&quot;&gt;&lt;span style=&quot;text-align: center; color: rgb(0, 0, 0); font-family: &amp;quot;Microsoft YaHei&amp;quot;, 微软雅黑, Arial; font-size: 13px; background-color: rgba(255, 255, 255, 0.01);&quot;&gt;/iuap-apcom-workbench/menubar/getAllLight/v3&lt;/span&gt;&lt;/p&gt;&lt;div style=&quot;color: rgb(0, 0, 0); resize: none; outline: none; font-size: 13px; font-family: &amp;quot;Microsoft YaHei&amp;quot;, 微软雅黑, Arial;&quot;&gt;&lt;br&gt;/iuap-apcom-workbench/service/getServiceInfoWithDetail?serviceCode=CDP_&lt;/div&gt;" style="shape=note;size=15;spacingLeft=5;html=1;overflow=fill;whiteSpace=wrap;" parent="1" vertex="1">
          <mxGeometry x="1560" y="180" width="370" height="90" as="geometry" />
        </mxCell>
        <mxCell id="vnCYAxqODqpSektjDldU-75" value="" style="rounded=0;endArrow=none;dashed=1;html=1;" parent="1" source="vnCYAxqODqpSektjDldU-73" target="vnCYAxqODqpSektjDldU-74" edge="1">
          <mxGeometry relative="1" as="geometry">
            <mxPoint x="1090" y="670" as="targetPoint" />
          </mxGeometry>
        </mxCell>
        <mxCell id="vnCYAxqODqpSektjDldU-166" value="Task" style="swimlane;fillColor=#1ba1e2;fontColor=#ffffff;strokeColor=#006EAF;" parent="1" vertex="1">
          <mxGeometry x="-300" y="300" width="410" height="760" as="geometry">
            <mxRectangle x="-300" y="300" width="70" height="30" as="alternateBounds" />
          </mxGeometry>
        </mxCell>
        <mxCell id="vnCYAxqODqpSektjDldU-167" value="&lt;span style=&quot;font-family: &amp;quot;Microsoft YaHei&amp;quot;, 微软雅黑, Arial; font-size: 13px; background-color: rgba(255, 255, 255, 0.01);&quot;&gt;initializeTaskMonitor&lt;/span&gt;" style="rounded=1;whiteSpace=wrap;html=1;" parent="vnCYAxqODqpSektjDldU-166" vertex="1">
          <mxGeometry x="110" y="50" width="140" height="60" as="geometry" />
        </mxCell>
        <mxCell id="vnCYAxqODqpSektjDldU-171" value="&lt;span style=&quot;font-family: &amp;quot;Microsoft YaHei&amp;quot;, 微软雅黑, Arial; font-size: 13px; background-color: rgba(255, 255, 255, 0.01);&quot;&gt;onDidStartTask&lt;/span&gt;" style="whiteSpace=wrap;html=1;" parent="vnCYAxqODqpSektjDldU-166" vertex="1">
          <mxGeometry x="60" y="170" width="100" height="40" as="geometry" />
        </mxCell>
        <mxCell id="vnCYAxqODqpSektjDldU-218" style="edgeStyle=orthogonalEdgeStyle;rounded=0;orthogonalLoop=1;jettySize=auto;html=1;exitX=0.5;exitY=1;exitDx=0;exitDy=0;entryX=0.5;entryY=0;entryDx=0;entryDy=0;" parent="vnCYAxqODqpSektjDldU-166" source="vnCYAxqODqpSektjDldU-172" target="vnCYAxqODqpSektjDldU-198" edge="1">
          <mxGeometry relative="1" as="geometry" />
        </mxCell>
        <mxCell id="vnCYAxqODqpSektjDldU-172" value="&lt;span style=&quot;font-family: &amp;quot;Microsoft YaHei&amp;quot;, 微软雅黑, Arial; font-size: 13px; background-color: rgba(255, 255, 255, 0.01);&quot;&gt;onDidEndTask&lt;/span&gt;" style="whiteSpace=wrap;html=1;" parent="vnCYAxqODqpSektjDldU-166" vertex="1">
          <mxGeometry x="200" y="170" width="100" height="40" as="geometry" />
        </mxCell>
        <mxCell id="vnCYAxqODqpSektjDldU-173" value="" style="edgeStyle=elbowEdgeStyle;elbow=vertical;html=1;rounded=1;curved=0;sourcePerimeterSpacing=0;targetPerimeterSpacing=0;startSize=6;endSize=6;exitX=0.5;exitY=1;exitDx=0;exitDy=0;" parent="vnCYAxqODqpSektjDldU-166" source="vnCYAxqODqpSektjDldU-167" target="vnCYAxqODqpSektjDldU-171" edge="1">
          <mxGeometry relative="1" as="geometry">
            <mxPoint x="170" y="110" as="sourcePoint" />
          </mxGeometry>
        </mxCell>
        <mxCell id="vnCYAxqODqpSektjDldU-174" value="" style="edgeStyle=elbowEdgeStyle;elbow=vertical;html=1;rounded=1;curved=0;sourcePerimeterSpacing=0;targetPerimeterSpacing=0;startSize=6;endSize=6;exitX=0.5;exitY=1;exitDx=0;exitDy=0;" parent="vnCYAxqODqpSektjDldU-166" source="vnCYAxqODqpSektjDldU-167" target="vnCYAxqODqpSektjDldU-172" edge="1">
          <mxGeometry relative="1" as="geometry">
            <mxPoint x="180" y="120" as="sourcePoint" />
          </mxGeometry>
        </mxCell>
        <mxCell id="vnCYAxqODqpSektjDldU-197" value="Assets" style="childLayout=tableLayout;recursiveResize=0;strokeColor=#98bf21;fillColor=#A7C942;shadow=1;" parent="vnCYAxqODqpSektjDldU-166" vertex="1">
          <mxGeometry x="100" y="240" width="300" height="260" as="geometry" />
        </mxCell>
        <mxCell id="vnCYAxqODqpSektjDldU-198" style="shape=tableRow;horizontal=0;startSize=0;swimlaneHead=0;swimlaneBody=0;top=0;left=0;bottom=0;right=0;dropTarget=0;collapsible=0;recursiveResize=0;expand=0;fontStyle=0;strokeColor=inherit;fillColor=#ffffff;" parent="vnCYAxqODqpSektjDldU-197" vertex="1">
          <mxGeometry width="300" height="33" as="geometry" />
        </mxCell>
        <mxCell id="vnCYAxqODqpSektjDldU-199" value="变量/函数" style="connectable=0;recursiveResize=0;strokeColor=inherit;fillColor=#A7C942;align=center;fontStyle=1;fontColor=#FFFFFF;html=1;" parent="vnCYAxqODqpSektjDldU-198" vertex="1">
          <mxGeometry width="120" height="33" as="geometry">
            <mxRectangle width="120" height="33" as="alternateBounds" />
          </mxGeometry>
        </mxCell>
        <mxCell id="vnCYAxqODqpSektjDldU-200" value="作用" style="connectable=0;recursiveResize=0;strokeColor=inherit;fillColor=#A7C942;align=center;fontStyle=1;fontColor=#FFFFFF;html=1;" parent="vnCYAxqODqpSektjDldU-198" vertex="1">
          <mxGeometry x="120" width="80" height="33" as="geometry">
            <mxRectangle width="80" height="33" as="alternateBounds" />
          </mxGeometry>
        </mxCell>
        <mxCell id="vnCYAxqODqpSektjDldU-201" value="备注" style="connectable=0;recursiveResize=0;strokeColor=inherit;fillColor=#A7C942;align=center;fontStyle=1;fontColor=#FFFFFF;html=1;" parent="vnCYAxqODqpSektjDldU-198" vertex="1">
          <mxGeometry x="200" width="100" height="33" as="geometry">
            <mxRectangle width="100" height="33" as="alternateBounds" />
          </mxGeometry>
        </mxCell>
        <mxCell id="vnCYAxqODqpSektjDldU-202" value="" style="shape=tableRow;horizontal=0;startSize=0;swimlaneHead=0;swimlaneBody=0;top=0;left=0;bottom=0;right=0;dropTarget=0;collapsible=0;recursiveResize=0;expand=0;fontStyle=0;strokeColor=inherit;fillColor=#ffffff;" parent="vnCYAxqODqpSektjDldU-197" vertex="1">
          <mxGeometry y="33" width="300" height="67" as="geometry" />
        </mxCell>
        <mxCell id="vnCYAxqODqpSektjDldU-203" value="&lt;div style=&quot;color: rgb(36, 41, 46); background-color: rgb(255, 255, 255); font-family: Menlo, Monaco, &amp;quot;Courier New&amp;quot;, monospace; font-size: 14px; line-height: 21px; white-space: pre;&quot;&gt;&lt;span style=&quot;color: #005cc5;&quot;&gt;runningTasks&lt;/span&gt;&lt;/div&gt;" style="connectable=0;recursiveResize=0;strokeColor=inherit;fillColor=inherit;align=center;whiteSpace=wrap;html=1;" parent="vnCYAxqODqpSektjDldU-202" vertex="1">
          <mxGeometry width="120" height="67" as="geometry">
            <mxRectangle width="120" height="67" as="alternateBounds" />
          </mxGeometry>
        </mxCell>
        <mxCell id="vnCYAxqODqpSektjDldU-204" value="保存运行中的task" style="connectable=0;recursiveResize=0;strokeColor=inherit;fillColor=inherit;align=center;whiteSpace=wrap;html=1;" parent="vnCYAxqODqpSektjDldU-202" vertex="1">
          <mxGeometry x="120" width="80" height="67" as="geometry">
            <mxRectangle width="80" height="67" as="alternateBounds" />
          </mxGeometry>
        </mxCell>
        <mxCell id="vnCYAxqODqpSektjDldU-205" value="主要用于保存运行中的task，用于判断和清理" style="connectable=0;recursiveResize=0;strokeColor=inherit;fillColor=inherit;align=center;whiteSpace=wrap;html=1;" parent="vnCYAxqODqpSektjDldU-202" vertex="1">
          <mxGeometry x="200" width="100" height="67" as="geometry">
            <mxRectangle width="100" height="67" as="alternateBounds" />
          </mxGeometry>
        </mxCell>
        <mxCell id="vnCYAxqODqpSektjDldU-206" value="" style="shape=tableRow;horizontal=0;startSize=0;swimlaneHead=0;swimlaneBody=0;top=0;left=0;bottom=0;right=0;dropTarget=0;collapsible=0;recursiveResize=0;expand=0;fontStyle=1;strokeColor=inherit;fillColor=#EAF2D3;" parent="vnCYAxqODqpSektjDldU-197" vertex="1">
          <mxGeometry y="100" width="300" height="50" as="geometry" />
        </mxCell>
        <mxCell id="vnCYAxqODqpSektjDldU-207" value="&lt;div style=&quot;color: rgb(36, 41, 46); background-color: rgb(255, 255, 255); font-family: Menlo, Monaco, &amp;quot;Courier New&amp;quot;, monospace; font-size: 14px; line-height: 21px; white-space: pre;&quot;&gt;&lt;span style=&quot;color: rgb(0, 92, 197);&quot;&gt;taskListeners&lt;/span&gt;&lt;/div&gt;" style="connectable=0;recursiveResize=0;strokeColor=inherit;fillColor=inherit;whiteSpace=wrap;html=1;" parent="vnCYAxqODqpSektjDldU-206" vertex="1">
          <mxGeometry width="120" height="50" as="geometry">
            <mxRectangle width="120" height="50" as="alternateBounds" />
          </mxGeometry>
        </mxCell>
        <mxCell id="vnCYAxqODqpSektjDldU-208" value="保存task监听函数" style="connectable=0;recursiveResize=0;strokeColor=inherit;fillColor=inherit;whiteSpace=wrap;html=1;" parent="vnCYAxqODqpSektjDldU-206" vertex="1">
          <mxGeometry x="120" width="80" height="50" as="geometry">
            <mxRectangle width="80" height="50" as="alternateBounds" />
          </mxGeometry>
        </mxCell>
        <mxCell id="vnCYAxqODqpSektjDldU-209" value="保存监听函数，用于卸载等" style="connectable=0;recursiveResize=0;strokeColor=inherit;fillColor=inherit;whiteSpace=wrap;html=1;" parent="vnCYAxqODqpSektjDldU-206" vertex="1">
          <mxGeometry x="200" width="100" height="50" as="geometry">
            <mxRectangle width="100" height="50" as="alternateBounds" />
          </mxGeometry>
        </mxCell>
        <mxCell id="vnCYAxqODqpSektjDldU-210" value="" style="shape=tableRow;horizontal=0;startSize=0;swimlaneHead=0;swimlaneBody=0;top=0;left=0;bottom=0;right=0;dropTarget=0;collapsible=0;recursiveResize=0;expand=0;fontStyle=0;strokeColor=inherit;fillColor=#ffffff;" parent="vnCYAxqODqpSektjDldU-197" vertex="1">
          <mxGeometry y="150" width="300" height="60" as="geometry" />
        </mxCell>
        <mxCell id="vnCYAxqODqpSektjDldU-211" value="&lt;div style=&quot;color: rgb(36, 41, 46); background-color: rgb(255, 255, 255); font-family: Menlo, Monaco, &amp;quot;Courier New&amp;quot;, monospace; font-size: 14px; line-height: 21px; white-space: pre;&quot;&gt;&lt;span style=&quot;color: #6f42c1;&quot;&gt;checkRunning&lt;/span&gt;&lt;/div&gt;" style="connectable=0;recursiveResize=0;strokeColor=inherit;fillColor=inherit;fontStyle=0;align=center;whiteSpace=wrap;html=1;" parent="vnCYAxqODqpSektjDldU-210" vertex="1">
          <mxGeometry width="120" height="60" as="geometry">
            <mxRectangle width="120" height="60" as="alternateBounds" />
          </mxGeometry>
        </mxCell>
        <mxCell id="vnCYAxqODqpSektjDldU-212" value="检查是否还有任务在运行" style="connectable=0;recursiveResize=0;strokeColor=inherit;fillColor=inherit;fontStyle=0;align=center;whiteSpace=wrap;html=1;" parent="vnCYAxqODqpSektjDldU-210" vertex="1">
          <mxGeometry x="120" width="80" height="60" as="geometry">
            <mxRectangle width="80" height="60" as="alternateBounds" />
          </mxGeometry>
        </mxCell>
        <mxCell id="vnCYAxqODqpSektjDldU-213" value="导出的函数" style="connectable=0;recursiveResize=0;strokeColor=inherit;fillColor=inherit;fontStyle=0;align=center;whiteSpace=wrap;html=1;" parent="vnCYAxqODqpSektjDldU-210" vertex="1">
          <mxGeometry x="200" width="100" height="60" as="geometry">
            <mxRectangle width="100" height="60" as="alternateBounds" />
          </mxGeometry>
        </mxCell>
        <mxCell id="vnCYAxqODqpSektjDldU-214" value="" style="shape=tableRow;horizontal=0;startSize=0;swimlaneHead=0;swimlaneBody=0;top=0;left=0;bottom=0;right=0;dropTarget=0;collapsible=0;recursiveResize=0;expand=0;fontStyle=1;strokeColor=inherit;fillColor=#EAF2D3;" parent="vnCYAxqODqpSektjDldU-197" vertex="1">
          <mxGeometry y="210" width="300" height="50" as="geometry" />
        </mxCell>
        <mxCell id="vnCYAxqODqpSektjDldU-215" value="&lt;div style=&quot;color: rgb(36, 41, 46); background-color: rgb(255, 255, 255); font-family: Menlo, Monaco, &amp;quot;Courier New&amp;quot;, monospace; font-size: 14px; line-height: 21px; white-space: pre;&quot;&gt;&lt;span style=&quot;color: rgb(111, 66, 193);&quot;&gt;pushDidEnd&lt;br/&gt;TaskCallback&lt;/span&gt;&lt;/div&gt;" style="connectable=0;recursiveResize=0;strokeColor=inherit;fillColor=inherit;whiteSpace=wrap;html=1;" parent="vnCYAxqODqpSektjDldU-214" vertex="1">
          <mxGeometry width="120" height="50" as="geometry">
            <mxRectangle width="120" height="50" as="alternateBounds" />
          </mxGeometry>
        </mxCell>
        <mxCell id="vnCYAxqODqpSektjDldU-216" value="存储监听函数" style="connectable=0;recursiveResize=0;strokeColor=inherit;fillColor=inherit;whiteSpace=wrap;html=1;" parent="vnCYAxqODqpSektjDldU-214" vertex="1">
          <mxGeometry x="120" width="80" height="50" as="geometry">
            <mxRectangle width="80" height="50" as="alternateBounds" />
          </mxGeometry>
        </mxCell>
        <mxCell id="vnCYAxqODqpSektjDldU-217" value="导出的函数" style="connectable=0;recursiveResize=0;strokeColor=inherit;fillColor=inherit;whiteSpace=wrap;html=1;" parent="vnCYAxqODqpSektjDldU-214" vertex="1">
          <mxGeometry x="200" width="100" height="50" as="geometry">
            <mxRectangle width="100" height="50" as="alternateBounds" />
          </mxGeometry>
        </mxCell>
        <mxCell id="vnCYAxqODqpSektjDldU-170" style="edgeStyle=orthogonalEdgeStyle;rounded=0;orthogonalLoop=1;jettySize=auto;html=1;" parent="1" source="vnCYAxqODqpSektjDldU-9" target="vnCYAxqODqpSektjDldU-166" edge="1">
          <mxGeometry relative="1" as="geometry" />
        </mxCell>
      </root>
    </mxGraphModel>
  </diagram>
</mxfile>
